<svg width="345" height="121" viewBox="0 0 345 121" fill="none" xmlns="http://www.w3.org/2000/svg">
<rect x="221.009" y="3.37109" width="118.912" height="111.24" fill="#363859"/>
<rect x="219.434" y="2.8091" width="122.482" height="114.217" rx="8.42729" stroke="black" stroke-width="5.6182"/>
<path opacity="0.5" d="M192.966 43.3643C194.063 42.2672 194.063 40.4886 192.966 39.3916L175.089 21.5146C173.992 20.4176 172.214 20.4176 171.117 21.5146C170.02 22.6116 170.02 24.3903 171.117 25.4873L187.007 41.3779L171.117 57.2686C170.02 58.3656 170.02 60.1442 171.117 61.2413C172.214 62.3383 173.992 62.3383 175.089 61.2413L192.966 43.3643ZM146.538 44.187H190.98V38.5688H146.538V44.187Z" fill="black"/>
<path opacity="0.5" d="M144.552 92.2021C143.455 93.2992 143.455 95.0778 144.552 96.1748L162.429 114.052C163.526 115.149 165.305 115.149 166.402 114.052C167.499 112.955 167.499 111.176 166.402 110.079L150.511 94.1885L166.402 78.2978C167.499 77.2008 167.499 75.4222 166.402 74.3252C165.305 73.2281 163.526 73.2281 162.429 74.3252L144.552 92.2021ZM190.98 91.3794L146.539 91.3794L146.539 96.9976L190.98 96.9976L190.98 91.3794Z" fill="black"/>
<rect x="2.40234" y="3.37109" width="122.516" height="116.858" rx="11.2364" fill="#363859"/>
<rect x="2.8091" y="2.8091" width="122.482" height="114.217" rx="8.42729" stroke="black" stroke-width="5.6182"/>
<mask id="mask0" mask-type="alpha" maskUnits="userSpaceOnUse" x="4" y="2" width="121" height="113">
<rect x="4.68022" y="2.72319" width="119.161" height="111.412" fill="white" stroke="black" stroke-width="0.952236"/>
</mask>
<g mask="url(#mask0)">
<path fill-rule="evenodd" clip-rule="evenodd" d="M66.9594 55.6455C63.3684 51.7023 60.9379 46.8699 61.3441 41.4551C62.5143 25.8534 85.7302 29.2855 90.2462 37.1599C94.7621 45.0343 94.2255 65.0084 88.389 66.4158C86.0614 66.977 81.103 65.6022 76.0564 62.7566L79.224 83.7206H60.5205L66.9594 55.6455Z" fill="#D9BB9F"/>
<path fill-rule="evenodd" clip-rule="evenodd" d="M82.8579 28.584C80.3022 27.8549 76.5922 27.6077 75.0315 27.7749C75.9193 25.7851 76.2716 23.5682 75.9844 21.4096C75.7053 19.3121 74.7034 17.5262 73.7768 15.6548C73.3497 14.7922 72.8657 13.9343 72.1441 13.2745C71.4089 12.6023 70.4784 12.1586 69.5026 11.9469C68.504 11.7302 67.4599 11.7483 66.4597 11.9449C66.0173 12.0319 65.6203 12.2211 65.1864 12.3263C64.7421 12.4341 64.5265 12.1739 64.204 11.9125C63.4268 11.2825 62.2873 10.9715 61.304 10.8602C60.2008 10.7354 59.0561 10.891 58.0039 11.2303C56.9798 11.5606 55.996 12.0969 55.2555 12.8782C54.9259 13.226 54.6266 13.6219 54.4321 14.0589C54.3524 14.2383 54.3392 14.3446 54.1478 14.4103C53.9709 14.4711 53.7639 14.4729 53.5813 14.5307C51.8155 15.0902 50.3058 16.3666 49.4837 18.0053C49.0041 18.9614 48.777 20.6446 48.8392 22.5313C48.9014 24.4179 50.7224 29.3408 52.4257 31.1364C53.946 32.7391 56.1806 33.7968 58.3372 34.2597C56.9058 35.7904 55.9529 37.7031 55.2483 39.6483C54.4829 41.7613 54.0092 43.9568 53.8343 46.1939C53.6681 48.3193 53.6527 50.567 54.1854 52.647C54.6836 54.5922 55.7492 56.1879 57.5281 57.2003C58.3429 57.664 59.2196 58.0124 60.1014 58.3308C60.9704 58.6446 61.842 58.9496 62.7523 59.1257C64.475 59.4588 66.4601 59.4016 67.7872 58.1188C68.2654 57.6564 68.7915 57.0753 69.1404 56.5103C69.2659 56.3072 69.3415 56.1743 69.1891 55.9757C69.0065 55.7379 68.7111 55.5556 68.4765 55.3696C67.1388 54.3087 66.3107 52.8925 66.102 51.2095C65.8902 49.5019 66.3805 47.2978 68.1553 46.5525C70.346 45.6326 72.7586 46.6885 74.7058 47.6728C75.5333 44.9406 77.2325 42.4805 79.8964 41.2272C82.8437 39.8406 86.2256 39.6784 89.2543 38.4887C90.0435 38.1787 90.8474 37.8268 91.4285 37.1952C91.6713 36.9312 91.9562 36.5887 92.0531 36.2396C92.1805 35.781 91.8643 35.3964 91.62 35.0389C90.3249 33.1431 85.4136 29.313 82.8579 28.584Z" fill="#523217"/>
<path fill-rule="evenodd" clip-rule="evenodd" d="M117.283 124.044L148.053 120.118C154.208 116.915 159.871 114.747 165.04 113.613C166.495 113.573 168.809 114.068 165.362 116.757C161.914 119.446 158.416 122.42 159.03 123.855C159.644 125.29 162.851 124.756 163.382 126.963C163.736 128.435 158.532 128.674 147.771 127.681L122.804 136.94L117.283 124.044ZM20.6249 130.707L37.6898 130.767C18.9777 170.159 9.22085 190.785 8.41939 192.643C6.6161 196.823 10.4321 203.19 12.064 206.612C6.74901 208.837 7.31533 200.597 0.610649 203.515C-5.50907 206.179 -10.1643 211.005 -17.2348 206.923C-18.104 206.422 -19.0566 204.533 -16.7551 203.056C-11.0211 199.378 -2.75803 192.941 -1.64156 190.822C-0.119057 187.932 7.3031 167.894 20.6249 130.707Z" fill="#D6B294"/>
<path fill-rule="evenodd" clip-rule="evenodd" d="M67.3674 80.0755L80.7287 80.9082C84.0193 108.758 101.943 126.349 142.074 120.394L147.405 156.259C109.897 160.793 77.0025 146.746 70.261 108.711C68.5158 98.8649 67.1378 88.6182 67.3674 80.0755Z" fill="#AFB9C5"/>
<path fill-rule="evenodd" clip-rule="evenodd" d="M60.7759 76.442L81.02 80.7793C81.02 113.352 92.1115 134.134 97.8005 158.082H43.1267C42.3565 166.358 41.8835 174.863 41.6371 183.599H0.699219C9.97596 137.424 29.556 101.702 59.4394 76.4304H60.7653L60.7759 76.442Z" fill="#C5CFD6"/>
<path fill-rule="evenodd" clip-rule="evenodd" d="M51.753 111.613C50.344 131.91 51.1727 147.4 54.239 158.082H43.127C44.6527 141.689 47.3448 126.199 51.753 111.613V111.613Z" fill="black" fill-opacity="0.1"/>
</g>
<mask id="mask1" mask-type="alpha" maskUnits="userSpaceOnUse" x="221" y="3" width="119" height="112">
<rect x="-0.471357" y="0.471357" width="117.969" height="110.298" transform="matrix(-1 0 0 1 338.977 3.37109)" fill="white" stroke="black" stroke-width="0.942714"/>
</mask>
<g mask="url(#mask1)">
<path fill-rule="evenodd" clip-rule="evenodd" d="M284.857 48.3223C288.891 43.8927 291.621 38.4642 291.165 32.3814C289.85 14.8553 263.771 18.7108 258.698 27.5565C253.624 36.4022 254.227 58.8401 260.784 60.4211C263.398 61.0516 268.969 59.5071 274.638 56.3106L271.079 79.8604H292.09L284.857 48.3223Z" fill="#B28B67"/>
<path fill-rule="evenodd" clip-rule="evenodd" d="M273.587 34.3171C272.783 44.7975 270.656 50.0377 267.205 50.0377C262.029 50.0377 257.637 46.9636 255.366 46.9636C253.71 46.9636 254.08 48.9018 255.177 50.3389C256.083 51.5245 260.492 52.6673 260.492 54.5054C260.492 56.3435 257.008 54.9215 257.008 56.0116C257.008 57.8149 256.396 61.2053 259.742 61.2053C263.127 61.2053 272.835 60.0511 274.499 55.3501C275.572 52.3163 276.267 46.0296 276.581 36.49C276.787 36.4672 276.996 36.4555 277.208 36.4555C280.109 36.4555 282.46 38.6554 282.46 41.3692C282.46 42.7469 281.854 43.9922 280.878 44.8844C282.093 46.4892 283.455 48.1657 285.016 49.8956C290.88 46.6046 295.231 36.9706 289.498 27.7157C287.914 23.1819 284.327 20.7603 280.09 19.6358C276.658 18.2929 273.096 18.1415 270.089 18.9465C264.193 19.4195 258.929 21.1012 257.437 22.0998C257.437 27.3209 258.519 28.87 267.756 28.7334C270.025 29.8547 271.77 31.7856 273.587 34.3171Z" fill="black"/>
<path fill-rule="evenodd" clip-rule="evenodd" d="M281.217 71.1406L273.647 69.9259C260.614 100.383 237.859 128.058 205.383 152.949L229.924 180.84C262.396 145.398 282.412 108.832 281.217 71.1406Z" fill="#C1DEE2"/>
<path fill-rule="evenodd" clip-rule="evenodd" d="M314.215 160.135H246.806C262.423 124.613 270.231 94.4369 270.231 69.6076L290.565 66.7734C306.546 90.8169 311.059 120.419 314.215 160.135Z" fill="#DDE3E9"/>
<path fill-rule="evenodd" clip-rule="evenodd" d="M290.996 66.7869C290.993 66.7824 290.991 66.7779 290.988 66.7734L289.661 66.7734C288.073 66.8246 285.653 66.9168 282.403 67.05L277.49 80.1855C276.97 96.2007 273.935 128.476 268.385 177.011H312.573C312.457 180.363 312.266 183.746 312 187.161H344.855C339.941 135.291 321.993 95.1619 291.012 66.7734L290.996 66.7869V66.7869Z" fill="#C1DEE2"/>
</g>
</svg>
