<svg width="343" height="200" viewBox="0 0 343 200" fill="none" xmlns="http://www.w3.org/2000/svg">
<rect x="1.62988" y="119.308" width="83.1357" height="80.0023" rx="7.69252" fill="#363859"/>
<rect x="1.92313" y="118.923" width="83.0791" height="78.1942" rx="5.76939" stroke="black" stroke-width="3.84626"/>
<mask id="mask0" mask-type="alpha" maskUnits="userSpaceOnUse" x="2" y="118" width="83" height="78">
<rect x="3.17752" y="118.864" width="80.8537" height="76.2733" fill="white" stroke="black" stroke-width="0.651909"/>
</mask>
<g mask="url(#mask0)">
<path fill-rule="evenodd" clip-rule="evenodd" d="M45.4357 155.096C42.9989 152.396 41.3497 149.088 41.6253 145.381C42.4193 134.7 58.173 137.05 61.2374 142.441C64.3018 147.831 63.9377 161.506 59.9772 162.469C58.3978 162.854 55.0331 161.912 51.6087 159.964L53.7581 174.316H41.0664L45.4357 155.096Z" fill="#D9BB9F"/>
<path fill-rule="evenodd" clip-rule="evenodd" d="M56.2239 136.569C54.4896 136.07 51.9721 135.901 50.9131 136.015C51.5155 134.653 51.7546 133.135 51.5597 131.657C51.3702 130.221 50.6904 128.999 50.0617 127.718C49.7718 127.127 49.4434 126.54 48.9537 126.088C48.4549 125.628 47.8234 125.324 47.1613 125.179C46.4837 125.031 45.7751 125.043 45.0965 125.178C44.7963 125.237 44.5269 125.367 44.2324 125.439C43.9309 125.513 43.7847 125.334 43.5658 125.155C43.0384 124.724 42.2652 124.511 41.598 124.435C40.8494 124.35 40.0726 124.456 39.3586 124.688C38.6637 124.915 37.9961 125.282 37.4936 125.817C37.2699 126.055 37.0668 126.326 36.9349 126.625C36.8807 126.748 36.8718 126.82 36.742 126.865C36.6219 126.907 36.4815 126.908 36.3575 126.948C35.1593 127.331 34.1349 128.205 33.577 129.327C33.2516 129.981 33.0974 131.134 33.1397 132.425C33.1819 133.717 34.4176 137.087 35.5733 138.316C36.605 139.414 38.1213 140.138 39.5848 140.455C38.6134 141.502 37.9668 142.812 37.4887 144.144C36.9693 145.59 36.6479 147.093 36.5292 148.625C36.4164 150.08 36.406 151.619 36.7674 153.043C37.1055 154.374 37.8286 155.467 39.0357 156.16C39.5886 156.477 40.1835 156.716 40.7819 156.934C41.3715 157.149 41.963 157.357 42.5807 157.478C43.7497 157.706 45.0967 157.667 45.9972 156.789C46.3218 156.472 46.6787 156.074 46.9155 155.688C47.0006 155.548 47.052 155.457 46.9485 155.322C46.8246 155.159 46.6242 155.034 46.465 154.907C45.5573 154.18 44.9954 153.211 44.8537 152.059C44.71 150.889 45.0427 149.381 46.247 148.87C47.7336 148.241 49.3707 148.963 50.692 149.637C51.2536 147.767 52.4066 146.083 54.2143 145.225C56.2142 144.275 58.509 144.164 60.5643 143.35C61.0998 143.138 61.6453 142.897 62.0396 142.464C62.2044 142.283 62.3977 142.049 62.4634 141.81C62.5499 141.496 62.3353 141.233 62.1696 140.988C61.2908 139.69 57.9581 137.068 56.2239 136.569Z" fill="#523217"/>
<path fill-rule="evenodd" clip-rule="evenodd" d="M79.5851 201.922L100.465 199.234C104.641 197.041 108.484 195.557 111.992 194.781C112.979 194.754 114.549 195.093 112.21 196.933C109.87 198.774 107.496 200.81 107.913 201.793C108.33 202.775 110.506 202.41 110.866 203.921C111.107 204.928 107.576 205.092 100.273 204.412L83.3312 210.751L79.5851 201.922ZM13.9953 206.483L25.5751 206.524C12.8775 233.493 6.2568 247.613 5.71295 248.885C4.48928 251.747 7.07872 256.106 8.18607 258.449C4.57948 259.972 4.96376 254.331 0.414151 256.329C-3.73852 258.152 -6.89745 261.456 -11.6953 258.662C-12.2851 258.318 -12.9315 257.025 -11.3698 256.014C-7.47882 253.496 -1.87174 249.089 -1.11414 247.639C-0.081007 245.661 4.95547 231.942 13.9953 206.483Z" fill="#D6B294"/>
<path fill-rule="evenodd" clip-rule="evenodd" d="M45.7131 171.821L54.7797 172.391C57.0126 191.457 69.1753 203.5 96.4067 199.423L100.025 223.976C74.5726 227.081 52.2512 217.464 47.6766 191.425C46.4923 184.684 45.5573 177.669 45.7131 171.821Z" fill="#AFB9C5"/>
<path fill-rule="evenodd" clip-rule="evenodd" d="M41.2391 169.333L54.9762 172.302C54.9762 194.602 62.5026 208.829 66.3629 225.225H29.2628C28.7401 230.89 28.4192 236.713 28.252 242.693H0.472656C6.7676 211.082 20.0541 186.626 40.3322 169.325H41.2318L41.2391 169.333Z" fill="#C5CFD6"/>
<path fill-rule="evenodd" clip-rule="evenodd" d="M35.1161 193.411C34.16 207.307 34.7223 217.911 36.8031 225.224H29.2627C30.298 214.001 32.1248 203.397 35.1161 193.411V193.411Z" fill="black" fill-opacity="0.1"/>
</g>
<rect x="1.6875" y="2.38818" width="86.0265" height="82.7841" rx="7.96001" fill="#363859"/>
<rect x="1.99" y="1.99" width="85.968" height="80.9132" rx="5.97001" stroke="black" stroke-width="3.98001"/>
<rect x="255.939" y="4.33301" width="84.0393" height="80.8718" rx="7.77614" fill="#363859"/>
<rect x="256.235" y="3.94403" width="83.9821" height="79.0441" rx="5.8321" stroke="black" stroke-width="3.88807"/>
<mask id="mask1" mask-type="alpha" maskUnits="userSpaceOnUse" x="257" y="3" width="81" height="79">
<rect x="257.505" y="3.88516" width="80.0194" height="77.1024" fill="white" stroke="black" stroke-width="0.658995"/>
</mask>
<g mask="url(#mask1)">
<path fill-rule="evenodd" clip-rule="evenodd" d="M298.205 32.4148C296.052 29.973 294.595 26.9806 294.838 23.6275C295.54 13.9662 309.457 16.0916 312.164 20.9677C314.871 25.8439 314.55 38.2127 311.051 39.0842C309.656 39.4317 306.683 38.5804 303.658 36.8183L305.557 49.8H294.345L298.205 32.4148Z" fill="#B28B67"/>
<path fill-rule="evenodd" clip-rule="evenodd" d="M317.131 14.2083C316.899 13.4196 316.274 12.7444 315.432 12.5441C315.228 12.4955 315.018 12.4758 314.808 12.484C314.732 12.4869 314.711 12.5079 314.676 12.457C314.65 12.4193 314.649 12.3271 314.638 12.2827C314.605 12.1448 314.563 12.0086 314.512 11.8759C314.335 11.4234 314.04 11.0229 313.683 10.6856C313.015 10.0544 312.114 9.61885 311.177 9.54005C310.664 9.49694 310.155 9.57744 309.671 9.7386C309.42 9.82203 309.177 9.92591 308.94 10.0408C308.868 10.0753 308.637 10.2447 308.565 10.2337C308.486 10.2216 308.327 10.0317 308.263 9.98399C307.468 9.39469 306.486 9.16299 305.496 9.17008C304.379 9.17805 303.303 9.23201 302.371 9.89031C302.174 10.0297 301.986 10.1823 301.807 10.3429C301.713 10.4275 301.621 10.5153 301.534 10.6067C301.482 10.6618 301.431 10.7182 301.381 10.7761C301.298 10.8744 301.311 10.9067 301.194 10.8381C300.746 10.5748 300.226 10.4516 299.703 10.5138C299.392 10.5507 299.089 10.6409 298.802 10.7596C298.704 10.8 298.478 10.9612 298.374 10.9628C298.27 10.9643 298.047 10.8149 297.941 10.7769C297.365 10.5718 296.745 10.5212 296.141 10.616C295.517 10.7138 294.905 10.9543 294.376 11.2865C294.122 11.4464 293.9 11.6234 293.722 11.8611C293.645 11.9637 293.576 12.0722 293.489 12.1674C293.438 12.2231 293.337 12.2803 293.309 12.3508C293.326 12.3085 292.627 12.0484 292.561 12.0317C292.21 11.9431 291.853 11.9611 291.509 12.0704C290.862 12.276 290.306 12.7371 289.849 13.2098C289.615 13.4526 289.409 13.721 289.235 14.007C289.151 14.144 289.075 14.2848 289.005 14.4287C288.971 14.4984 288.949 14.5856 288.904 14.6484C288.847 14.7293 288.808 14.7309 288.704 14.7661C288.175 14.9453 287.692 15.2485 287.325 15.6582C286.953 16.0727 286.712 16.5831 286.611 17.1207C286.605 17.1523 286.602 17.2835 286.582 17.3007C286.556 17.3243 286.45 17.3138 286.41 17.3184C286.27 17.3342 286.132 17.3577 285.995 17.389C285.743 17.4465 285.498 17.5313 285.267 17.6421C284.363 18.0741 283.717 18.884 283.401 19.7953C283.069 20.7517 283.075 21.8473 283.471 22.7859C283.535 22.9374 283.612 23.0846 283.701 23.2238C283.756 23.3092 283.774 23.3094 283.738 23.3991C283.698 23.4988 283.626 23.5957 283.579 23.6932C283.424 24.0112 283.317 24.3485 283.249 24.693C283.137 25.2581 283.082 25.852 283.192 26.4214C283.243 26.6858 283.332 26.9443 283.468 27.1798C283.537 27.2998 283.618 27.4137 283.71 27.5191C283.758 27.5738 283.808 27.626 283.861 27.676C283.891 27.7046 283.931 27.7296 283.956 27.7616C284.019 27.8394 284.032 27.7754 284 27.8897C283.955 28.0496 283.852 28.2073 283.789 28.3628C283.725 28.5231 283.666 28.6855 283.613 28.8496C283.505 29.1818 283.413 29.5201 283.356 29.8641C283.246 30.5247 283.265 31.2286 283.588 31.8349C283.727 32.0942 283.925 32.3217 284.166 32.4986C284.283 32.5852 284.411 32.6598 284.545 32.7211C284.613 32.7526 284.701 32.7662 284.733 32.8304C284.766 32.8995 284.716 33.0367 284.705 33.1139C284.605 33.7858 284.555 34.4912 284.762 35.1496C284.953 35.7561 285.372 36.2915 285.916 36.646C286.971 37.3337 288.394 37.2949 289.504 36.7444C289.793 36.6008 290.063 36.4227 290.305 36.2125C290.919 37.0118 292.183 36.9865 293.081 36.7587C294.2 36.475 295.098 35.7232 295.615 34.7355C296.322 35.5675 297.807 35.2976 298.297 34.395C298.417 34.1741 298.488 33.9306 298.523 33.6842C298.542 33.5547 298.53 33.424 298.544 33.2955C298.562 33.1317 298.675 32.9725 298.74 32.8141C298.867 32.5058 298.945 32.1873 298.949 31.8547C298.951 31.681 298.928 31.5118 298.911 31.3396C298.895 31.1845 298.94 31.04 298.965 30.887C298.678 30.9326 298.329 30.8579 298.058 30.7775C297.793 30.6986 297.544 30.4908 297.357 30.301C296.922 29.8603 296.657 29.2826 296.475 28.7077C296.076 27.4458 296.24 25.9318 297.553 25.2392C298.165 24.9166 299.998 24.9176 300.727 25.0771C301.493 25.2447 302.362 26.8786 302.405 27.0322C302.431 27.1273 302.418 27.2449 302.508 27.3082C302.707 27.4475 303.034 27.2058 303.181 27.0866C303.434 26.8807 303.614 26.6068 303.77 26.3292C304.11 25.7244 304.385 25.0758 304.578 24.4137C304.728 23.9032 304.823 23.3768 305.018 22.8794C305.213 22.3844 305.519 21.9419 305.995 21.6615C306.513 21.3565 307.107 21.1958 307.676 21.0041C308.239 20.8141 308.793 20.5819 309.23 20.1788C309.326 20.0902 309.419 19.996 309.497 19.8916C309.558 19.8092 309.618 19.6515 309.711 19.5993C309.856 19.518 310.067 19.7293 310.192 19.8061C310.809 20.1847 311.323 20.7127 311.738 21.2895C312.151 21.8632 312.49 22.4152 312.765 23.0558C312.969 23.5309 313.097 24.1394 313.456 24.5287C313.616 24.7026 314.808 24.8077 315.194 24.656C315.579 24.5042 316.012 24.1101 316.142 23.8631C316.274 23.6103 316.306 23.3326 316.249 23.0558C316.216 22.893 316.148 22.7409 316.111 22.581C316.079 22.4466 316.051 22.3197 315.983 22.1966C315.855 21.9634 315.636 21.7957 315.372 21.7257C315.647 21.4807 315.874 21.1876 316.032 20.86C316.196 20.5197 316.335 20.1058 316.374 19.7322C316.406 19.4288 316.357 19.1144 316.185 18.8537C316.004 18.5801 315.685 18.4017 315.409 18.2311C315.831 17.9119 316.192 17.5237 316.489 17.0939C317.067 16.2582 317.424 15.2047 317.131 14.2083Z" fill="#191847"/>
<path fill-rule="evenodd" clip-rule="evenodd" d="M332.183 81.6805L349.111 74.4966C352.077 71.6411 354.94 69.4708 357.702 67.9857C358.527 67.7316 359.938 67.6549 358.433 69.7794C356.928 71.9039 355.443 74.204 356.045 74.9485C356.646 75.6931 358.388 74.8713 359.077 76.0821C359.536 76.8893 356.599 77.8549 350.266 78.9789L337.588 88.3719L332.183 81.6805ZM263.746 83.6591L273.319 85.4946C263.692 102.833 258.529 112.022 257.83 113.062C256.258 115.403 257.725 119.693 258.267 121.952C254.868 122.716 256.208 117.773 251.907 118.805C247.982 119.747 244.653 122.165 240.993 118.904C240.543 118.503 240.213 117.25 241.748 116.608C245.57 115.006 251.218 112.008 252.134 110.845C253.383 109.257 257.254 100.195 263.746 83.6591Z" fill="#B28B67"/>
<path fill-rule="evenodd" clip-rule="evenodd" d="M299.339 49.0474L303.379 48.3778C312.177 56.6258 315.768 76.4415 321.632 79.0644C327.176 81.5443 335.035 79.1446 344.377 75.9043L347.238 82.0811C338.75 90.9547 320.667 98.4516 313.338 94.1718C301.619 87.3292 298.914 62.8896 299.339 49.0474Z" fill="#DB2721"/>
<path fill-rule="evenodd" clip-rule="evenodd" d="M281.729 98.1053C297.927 98.1053 309.842 98.1053 317.474 98.1053C319.107 98.1053 318.799 95.8263 318.563 94.6762C315.838 81.4034 305.201 67.096 305.201 48.2025L294.891 46.6401C286.363 59.894 283.414 76.2121 281.729 98.1053Z" fill="#DDE3E9"/>
<path fill-rule="evenodd" clip-rule="evenodd" d="M278.165 84.6671C270.878 97.3685 264.753 106.513 259.79 112.1L252.298 110.682C257.124 81.7587 271.1 60.4113 294.226 46.6401H294.344L298.308 46.6401C307.564 77.1296 310.116 97.4448 305.963 107.586H273.788C274.297 100.166 275.929 92.3183 278.165 84.6671H278.165Z" fill="#FF4133"/>
</g>
<mask id="mask2" mask-type="alpha" maskUnits="userSpaceOnUse" x="3" y="5" width="81" height="76">
<rect x="3.84329" y="6.60501" width="79.4044" height="73.3918" fill="white" stroke="black" stroke-width="1.46784"/>
</mask>
<g mask="url(#mask2)">
<path fill-rule="evenodd" clip-rule="evenodd" d="M39.3463 37.452C36.8809 34.7734 35.2124 31.4907 35.4912 27.8123C36.2945 17.2139 52.2328 19.5454 55.3332 24.8946C58.4335 30.2438 58.0651 43.8124 54.0582 44.7684C52.4603 45.1497 49.0562 44.2157 45.5916 42.2827L47.7662 56.5237H34.9258L39.3463 37.452Z" fill="#B28B67"/>
<mask id="mask3" mask-type="alpha" maskUnits="userSpaceOnUse" x="27" y="16" width="29" height="27">
<path d="M54.9454 21.882C55.1767 21.2651 56.7531 19.3538 53.9456 17.5329C53.4411 17.2056 52.6076 17.5318 51.8855 17.3252C51.3421 17.1698 51.159 16.4682 50.5361 16.3458C49.89 16.2188 49.186 16.7943 48.4557 16.7438C48.0083 16.7128 47.3178 16.0673 46.852 16.0325C46.0204 15.9704 45.2649 16.697 44.4527 16.7438C43.9819 16.7708 43.4356 16.0696 42.9683 16.0325C41.8309 15.9422 40.7951 16.433 39.7928 16.5818C38.8691 16.719 38.4396 18.4713 37.7592 18.8854C35.624 20.1849 33.9511 20.5482 32.2185 21.882C30.1588 23.4675 29.7646 24.6471 28.9114 25.7036C28.0581 26.7601 27.5311 30.4826 28.0287 32.8682C28.3222 34.2754 29.0871 38.1186 30.7959 39.6066C33.1347 41.6432 37.8929 42.2466 38.3153 41.9749C40.2715 40.7164 44.6567 33.7559 47.7668 31.2959C50.0538 29.487 53.5126 25.7036 54.9454 21.882Z" fill="white"/>
</mask>
<g mask="url(#mask3)">
<path d="M54.9454 21.882C55.1767 21.2651 56.7531 19.3538 53.9456 17.5329C53.4411 17.2056 52.6076 17.5318 51.8855 17.3252C51.3421 17.1698 51.159 16.4682 50.5361 16.3458C49.89 16.2188 49.186 16.7943 48.4557 16.7438C48.0083 16.7128 47.3178 16.0673 46.852 16.0325C46.0204 15.9704 45.2649 16.697 44.4527 16.7438C43.9819 16.7708 43.4356 16.0696 42.9683 16.0325C41.8309 15.9422 40.7951 16.433 39.7928 16.5818C38.8691 16.719 38.4396 18.4713 37.7592 18.8854C35.624 20.1849 33.9511 20.5482 32.2185 21.882C30.1588 23.4675 29.7646 24.6471 28.9114 25.7036C28.0581 26.7601 27.5311 30.4826 28.0287 32.8682C28.3222 34.2754 29.0871 38.1186 30.7959 39.6066C33.1347 41.6432 37.8929 42.2466 38.3153 41.9749C40.2715 40.7164 44.6567 33.7559 47.7668 31.2959C50.0538 29.487 53.5126 25.7036 54.9454 21.882Z" fill="#FF9B21"/>
<path fill-rule="evenodd" clip-rule="evenodd" d="M39.1819 36.636C40.5866 33.7563 42.393 30.061 44.0268 26.2704C45.1984 23.5522 46.4448 20.0715 47.7659 15.8282H49.356C46.8511 22.4364 44.9669 27.0511 43.7034 29.6724C41.671 33.8888 40.2106 37.0909 39.0472 39.2401C40.9963 36.5954 43.9939 32.2814 47.1895 26.4802C48.4011 24.2807 49.8275 20.9129 51.4687 16.3769L52.9486 16.9629C50.4639 22.7042 48.5442 26.7078 47.1895 28.9739C42.7738 36.3604 38.5573 40.8171 37.0835 42.082C36.8285 42.3009 36.7432 42.3518 36.8044 42.2399C36.7841 42.237 36.7693 42.2257 36.7596 42.2063C36.6559 42.3514 36.5527 42.4786 36.4495 42.5879C34.9633 44.1614 38.7662 35.3902 41.5693 26.1911C42.4275 23.3745 43.274 19.7922 44.1087 15.4444L45.6901 15.2905C43.9451 22.1049 42.5923 26.8766 41.6318 29.6057C40.6578 32.373 39.8644 34.7174 39.1819 36.636Z" fill="black" fill-opacity="0.2"/>
</g>
<path fill-rule="evenodd" clip-rule="evenodd" d="M57.4844 74.312L76.0547 64.8972C79.1429 61.5027 82.1856 58.8663 85.1828 56.9882C86.0986 56.6343 87.7002 56.4201 86.2024 58.8809C84.7046 61.3416 83.2487 63.9924 84.0118 64.7505C84.7749 65.5086 86.6777 64.4496 87.588 65.7092C88.1949 66.5489 84.9441 67.8755 77.8357 69.6889L64.3421 81.1252L57.4844 74.312ZM86.569 82.2554L94.7262 78.1075C95.8708 74.0761 97.239 72.0477 98.8308 72.0225C100.054 71.4958 97.924 76.5898 100.242 76.1481C102.56 75.7063 108.218 71.8112 109.193 72.6021C110.635 73.7721 109.349 77.3647 107.834 79.1519C105.002 82.4921 102.657 83.6343 96.8619 85.1301C93.8318 85.9121 90.5556 87.4797 87.0335 89.8328L86.569 82.2554Z" fill="#997659"/>
<path fill-rule="evenodd" clip-rule="evenodd" d="M48.4396 72.2148C54.9442 72.1512 63.618 70.8796 72.873 65.4416L76.5077 72.9445C70.1238 78.8089 61.1474 83.6273 53.2987 83.4233C47.1134 83.2625 43.9522 76.3371 48.4396 72.2148Z" fill="#2026A2"/>
<path fill-rule="evenodd" clip-rule="evenodd" d="M57.1993 84.246C64.1046 85.8402 75.6845 83.9603 91.9389 78.6063C95.9707 86.3272 97.8344 91.8316 97.5303 95.1195C83.5864 101.862 71.6353 104.868 61.7892 105.066C62.1021 110.474 61.391 115.62 59.0021 120.322C54.091 129.988 25.334 121.036 15.665 122.798C9.60998 104.596 21.3175 97.1982 21.3269 85.5512C21.3373 72.7965 32.4012 53.1641 34.0291 53.1641L48.8741 53.1641C49.6932 62.905 53.8159 73.6403 57.1993 84.246Z" fill="#1F28CF"/>
</g>
<rect width="85.8522" height="82.6164" rx="7.94388" transform="matrix(-1 0 0 1 215.864 2.38379)" fill="#363859"/>
<rect x="-1.98597" y="1.98597" width="85.7938" height="80.7492" rx="5.95791" transform="matrix(-1 0 0 1 213.577 0)" stroke="black" stroke-width="3.97194"/>
<rect width="84.8422" height="81.6444" rx="7.85042" transform="matrix(-1 0 0 1 341.337 117.355)" fill="#363859"/>
<rect x="-1.96261" y="1.96261" width="84.7844" height="79.7992" rx="5.88782" transform="matrix(-1 0 0 1 339.075 115)" stroke="black" stroke-width="3.92521"/>
<mask id="mask4" mask-type="alpha" maskUnits="userSpaceOnUse" x="262" y="125" width="74" height="69">
<rect x="-0.291553" y="0.291553" width="72.3204" height="68.2235" transform="matrix(-1 0 0 1 334.676 125.148)" fill="white" stroke="black" stroke-width="0.583106"/>
</mask>
<g mask="url(#mask4)">
<path fill-rule="evenodd" clip-rule="evenodd" d="M301.5 152.952C303.973 150.212 305.647 146.855 305.367 143.092C304.561 132.252 288.572 134.636 285.462 140.108C282.352 145.579 282.722 159.458 286.741 160.436C288.344 160.826 291.759 159.871 295.235 157.893L293.053 172.46H305.935L301.5 152.952Z" fill="#B28B67"/>
<path fill-rule="evenodd" clip-rule="evenodd" d="M294.592 144.29C294.099 150.772 292.794 154.013 290.679 154.013C287.505 154.013 284.813 152.112 283.42 152.112C282.405 152.112 282.632 153.311 283.305 154.2C283.86 154.933 286.563 155.64 286.563 156.777C286.563 157.914 284.427 157.034 284.427 157.709C284.427 158.824 284.052 160.921 286.103 160.921C288.179 160.921 294.13 160.207 295.15 157.299C295.809 155.423 296.234 151.534 296.427 145.634C296.553 145.62 296.681 145.612 296.811 145.612C298.59 145.612 300.032 146.973 300.032 148.652C300.032 149.504 299.66 150.274 299.061 150.826C299.807 151.819 300.642 152.856 301.599 153.926C305.194 151.89 307.861 145.931 304.347 140.206C303.375 137.402 301.176 135.904 298.578 135.209C296.474 134.378 294.29 134.284 292.447 134.782C288.832 135.075 285.605 136.115 284.69 136.733C284.69 139.962 285.353 140.92 291.016 140.836C292.408 141.529 293.477 142.724 294.592 144.29Z" fill="black"/>
<path fill-rule="evenodd" clip-rule="evenodd" d="M299.27 167.066L294.629 166.315C286.639 185.154 272.688 202.272 252.778 217.668L267.823 234.92C287.731 212.998 300.003 190.38 299.27 167.066Z" fill="#C1DEE2"/>
<path fill-rule="evenodd" clip-rule="evenodd" d="M319.499 222.113H278.171C287.746 200.141 292.533 181.476 292.533 166.118L305 164.365C314.797 179.237 317.564 197.547 319.499 222.113Z" fill="#DDE3E9"/>
<path fill-rule="evenodd" clip-rule="evenodd" d="M305.265 164.374C305.263 164.371 305.261 164.368 305.26 164.365H304.446C303.472 164.397 301.989 164.454 299.997 164.536L296.984 172.661C296.666 182.567 294.805 202.531 291.402 232.551H318.493C318.422 234.625 318.305 236.718 318.142 238.83H338.285C335.272 206.746 324.269 181.925 305.275 164.365L305.265 164.374V164.374Z" fill="#C1DEE2"/>
</g>
<rect width="83.7345" height="80.5785" rx="7.74794" transform="matrix(-1 0 0 1 215.172 117.324)" fill="#363859"/>
<rect x="-1.93698" y="1.93698" width="83.6775" height="78.7574" rx="5.81095" transform="matrix(-1 0 0 1 212.94 115)" stroke="black" stroke-width="3.87397"/>
<mask id="mask5" mask-type="alpha" maskUnits="userSpaceOnUse" x="133" y="118" width="80" height="76">
<rect x="-0.318303" y="0.318303" width="78.9557" height="74.4828" transform="matrix(-1 0 0 1 212.198 118.756)" fill="white" stroke="black" stroke-width="0.636605"/>
</mask>
<g mask="url(#mask5)">
<path fill-rule="evenodd" clip-rule="evenodd" d="M177.326 150.111C172.411 150.111 170.624 144.557 167.831 141.51C165.834 139.329 162.424 139.98 161.415 136.927C158.877 129.251 165.669 123.849 174.531 123.849C183.392 123.849 189.367 128.587 190.657 135.709C191.947 142.832 186.187 150.111 177.326 150.111Z" fill="#191847"/>
<path fill-rule="evenodd" clip-rule="evenodd" d="M176.781 145.153C178.763 142.957 180.104 140.267 179.88 137.253C179.234 128.567 166.423 130.478 163.931 134.861C161.439 139.245 161.735 150.365 164.956 151.148C166.24 151.461 168.977 150.696 171.761 149.111L170.013 160.782H180.334L176.781 145.153Z" fill="#B28B67"/>
<path fill-rule="evenodd" clip-rule="evenodd" d="M172.429 139.564C172.804 139.377 173.234 139.271 173.691 139.271C175.153 139.271 176.338 140.361 176.338 141.706C176.338 142.255 176.141 142.761 175.808 143.169C176.435 144.145 176.863 145.17 177.003 146.224C179.178 146.224 187.113 138.459 179.208 131.154C171.303 123.848 159.879 134.277 163.311 134.885C165.285 135.235 169.26 137.013 172.429 139.564Z" fill="#191847"/>
<path fill-rule="evenodd" clip-rule="evenodd" d="M148.857 191.516L135.14 201.023C131.419 201.97 128.311 203.149 125.815 204.559C125.225 205.066 124.513 206.093 126.958 205.916C129.403 205.738 131.984 205.655 132.321 206.442C132.659 207.23 131.179 208.171 131.861 209.233C132.316 209.941 134.464 208.166 138.305 203.907L151.889 198.59L148.857 191.516ZM201.524 191.844L192.537 191.877C198.086 208.783 201.081 217.753 201.524 218.787C202.519 221.115 200.413 224.659 199.513 226.564C202.445 227.803 202.133 223.216 205.833 224.84C209.209 226.323 211.778 229.01 215.68 226.738C216.159 226.458 216.685 225.407 215.415 224.585C212.251 222.537 207.691 218.953 207.075 217.774C206.235 216.165 204.385 207.522 201.524 191.844Z" fill="#B28B67"/>
<path fill-rule="evenodd" clip-rule="evenodd" d="M175.986 156.255L172.267 155.653C158.471 166.901 152.804 188.511 135.893 199.959L139.963 204.721C169.301 201.293 176.573 174.934 175.986 156.255Z" fill="#E87613"/>
<path fill-rule="evenodd" clip-rule="evenodd" d="M192.195 200.359C177.285 200.359 166.318 200.359 159.293 200.359C157.79 200.359 158.073 198.31 158.29 197.276C160.799 185.344 170.59 172.481 170.59 155.495L180.081 154.091C187.931 166.006 190.645 180.677 192.195 200.359Z" fill="#DDE3E9"/>
<path fill-rule="evenodd" clip-rule="evenodd" d="M191.931 165.803C193.309 165.429 194.401 164.557 195.206 163.186C198.674 157.279 197.422 154.026 193.715 152.957C190.008 151.888 186.702 154.09 180.795 154.09C180.474 154.09 180.18 154.109 179.913 154.147L176.942 154.307C168.417 181.573 166.067 199.765 169.889 208.882H195.785C197.32 212.259 198.788 215.1 200.19 217.405H207.246C207.91 197.139 202.805 179.938 191.931 165.803Z" fill="#FF9B21"/>
</g>
<mask id="mask6" mask-type="alpha" maskUnits="userSpaceOnUse" x="135" y="6" width="84" height="75">
<rect x="-0.315474" y="0.315474" width="82.2652" height="73.821" transform="matrix(-1 0 0 1 218.208 6.41846)" fill="white" stroke="black" stroke-width="0.630948"/>
</mask>
<g mask="url(#mask6)">
<g clip-path="url(#clip0)">
<path fill-rule="evenodd" clip-rule="evenodd" d="M171.878 41.022C174.456 38.3038 176.201 34.9725 175.91 31.2397C175.069 20.4846 158.4 22.8506 155.157 28.2789C151.915 33.7071 152.3 47.4764 156.491 48.4466C158.162 48.8335 161.722 47.8857 165.346 45.9241L163.071 60.3757H176.501L171.878 41.022Z" fill="#EBCCB9"/>
<path fill-rule="evenodd" clip-rule="evenodd" d="M153.89 30.7162C154.023 30.0126 154.348 29.2312 154.61 28.5655C154.948 27.7074 155.46 26.9336 156.023 26.2044C157.084 24.8315 158.356 23.5917 159.76 22.5628C162.326 20.6833 165.592 19.5992 168.803 19.9512C170.424 20.129 171.998 20.6845 173.338 21.6091C174.549 22.4444 175.713 23.6742 177.28 23.7626C178.986 23.8586 180.549 22.5067 181.917 21.6717C183.459 20.7304 185.099 20.0445 186.902 19.7779C189.921 19.3314 192.758 20.2476 194.838 22.4725C197.053 24.8401 198.662 28.3123 197.208 31.4493C196.938 32.0325 196.59 32.5241 196.091 32.9316C195.633 33.3052 194.934 33.7027 194.749 34.2998C194.552 34.9344 195.141 35.753 195.369 36.3257C195.696 37.1461 195.965 38.0072 195.869 38.8989C195.712 40.3634 194.688 41.7614 193.606 42.7239C192.504 43.7034 191.149 44.265 189.702 44.5239C188.735 44.6968 187.748 44.7922 186.765 44.7273C186.278 44.6951 185.848 44.5734 185.375 44.4767C184.916 44.3826 184.659 44.4922 184.269 44.7185C182.458 45.7699 180.511 46.1766 178.42 46.0203C176.656 45.8883 174.622 45.5042 173.182 44.4183C171.584 43.2123 171.616 41.5492 171.992 39.7723C171.593 39.9497 170.491 40.0596 171.149 39.3525C171.41 39.0724 171.904 38.9585 172.239 38.7937C172.629 38.6019 173.024 38.3541 173.327 38.0412C174.55 36.778 173.315 34.2072 171.778 33.7836C169.495 33.1542 168.984 36.0543 167.354 36.8045C166.417 37.2359 165.436 36.6463 164.734 36.0443C163.794 35.2379 163.153 34.1695 162.599 33.0823C162.143 32.187 161.719 31.2791 161.254 30.3883C161.037 29.9722 160.286 28.7962 160.663 28.3258C159.028 28.0329 157.206 28.6433 155.798 29.4437C155.216 29.7746 154.772 30.1394 154.461 30.7236C154.395 30.8488 154.25 31.2209 154.068 31.2361C153.73 31.2646 153.856 30.893 153.89 30.7162Z" fill="#EFEFEF"/>
</g>
<path fill-rule="evenodd" clip-rule="evenodd" d="M178.012 58.0077C177.881 57.6257 177.749 57.2426 177.614 56.8584L177.117 57.0684C177.04 56.9965 176.961 56.9265 176.883 56.8584L161.22 59.0335C161.22 66.9443 154.212 74.3459 149.779 80.7142C142.887 90.6138 130.624 101.587 138.486 116.294C145.571 129.545 164.025 131.697 193.849 122.75C193.849 115.612 187.317 108.436 187.109 99.7576C186.91 91.4957 185.19 66.4637 178.012 58.0077Z" fill="#C1DEE2"/>
<path fill-rule="evenodd" clip-rule="evenodd" d="M162.921 119.924C163.05 120.337 163.181 120.758 163.314 121.186C187.821 105.803 187.833 87.1607 180.544 66.2651C186.038 86.8363 183.8 104.186 162.921 119.924Z" fill="black" fill-opacity="0.2"/>
</g>
<defs>
<clipPath id="clip0">
<rect width="44.7652" height="40.7078" fill="white" transform="matrix(-1 0 0 1 197.765 19.668)"/>
</clipPath>
</defs>
</svg>
