<svg width="345" height="123" viewBox="0 0 345 123" fill="none" xmlns="http://www.w3.org/2000/svg">
<rect x="218.933" width="125.278" height="122.602" rx="11.352" fill="#363859"/>
<rect width="124.062" height="122.602" rx="11.352" fill="#363859"/>
<rect x="2.83801" y="3.97326" width="124.041" height="115.393" rx="8.51403" stroke="black" stroke-width="5.67602"/>
<path opacity="0.5" d="M199.046 40.6039C200.154 39.4956 200.154 37.6987 199.046 36.5904L180.985 18.5294C179.876 17.4211 178.079 17.4211 176.971 18.5294C175.863 19.6377 175.863 21.4347 176.971 22.543L193.025 38.5972L176.971 54.6514C175.863 55.7597 175.863 57.5566 176.971 58.6649C178.079 59.7732 179.876 59.7732 180.985 58.6649L199.046 40.6039ZM152.036 41.4352H197.039V35.7592H152.036V41.4352Z" fill="black"/>
<path opacity="0.5" d="M150.03 89.9449C148.921 91.0532 148.921 92.8501 150.03 93.9584L168.091 112.019C169.199 113.128 170.996 113.128 172.104 112.019C173.212 110.911 173.212 109.114 172.104 108.006L156.05 91.9517L172.104 75.8975C173.212 74.7891 173.212 72.9922 172.104 71.8839C170.996 70.7756 169.199 70.7756 168.091 71.8839L150.03 89.9449ZM197.039 89.1137L152.036 89.1137L152.036 94.7897L197.039 94.7897L197.039 89.1137Z" fill="black"/>
<mask id="mask0" mask-type="alpha" maskUnits="userSpaceOnUse" x="256" y="4" width="84" height="115">
<rect x="-0.481018" y="0.481018" width="81.7456" height="112.558" transform="matrix(-1 0 0 1 338.383 4.54102)" fill="white" stroke="black" stroke-width="0.962037"/>
</mask>
<g mask="url(#mask0)">
<path fill-rule="evenodd" clip-rule="evenodd" d="M317.097 58.4892C320.806 54.5055 323.316 49.6233 322.896 44.1528C321.688 28.3905 297.709 31.858 293.044 39.8134C288.38 47.7689 288.934 67.9485 294.962 69.3704C297.367 69.9374 302.488 68.5484 307.7 65.6736L304.429 86.8532H323.747L317.097 58.4892Z" fill="#D9BB9F"/>
<path fill-rule="evenodd" clip-rule="evenodd" d="M300.676 31.1486C303.316 30.4121 307.148 30.1623 308.76 30.3313C307.843 28.321 307.479 26.0812 307.775 23.9004C308.064 21.7814 309.098 19.9771 310.055 18.0864C310.497 17.2149 310.997 16.3482 311.742 15.6816C312.501 15.0025 313.462 14.5542 314.47 14.3404C315.502 14.1215 316.58 14.1397 317.613 14.3384C318.07 14.4262 318.48 14.6174 318.928 14.7237C319.387 14.8326 319.61 14.5697 319.943 14.3056C320.746 13.6691 321.923 13.3549 322.938 13.2425C324.078 13.1163 325.26 13.2736 326.347 13.6164C327.405 13.9501 328.421 14.4919 329.186 15.2813C329.526 15.6326 329.835 16.0326 330.036 16.4741C330.118 16.6554 330.132 16.7627 330.33 16.8291C330.512 16.8905 330.726 16.8923 330.915 16.9508C332.739 17.516 334.298 18.8055 335.147 20.4611C335.642 21.427 335.877 23.1276 335.813 25.0337C335.749 26.9397 333.868 31.9132 332.108 33.7273C330.538 35.3466 328.23 36.4151 326.003 36.8829C327.481 38.4292 328.465 40.3616 329.193 42.3269C329.984 44.4616 330.473 46.6798 330.654 48.9398C330.825 51.0871 330.841 53.3579 330.291 55.4593C329.776 57.4245 328.676 59.0367 326.838 60.0595C325.997 60.528 325.091 60.88 324.18 61.2016C323.283 61.5186 322.383 61.8268 321.442 62.0047C319.663 62.3413 317.613 62.2835 316.242 60.9875C315.748 60.5203 315.205 59.9332 314.844 59.3624C314.715 59.1572 314.637 59.0229 314.794 58.8223C314.983 58.582 315.288 58.3979 315.53 58.2099C316.912 57.1382 317.767 55.7074 317.983 54.0071C318.201 52.2819 317.695 50.0551 315.862 49.3022C313.599 48.3727 311.107 49.4395 309.096 50.434C308.241 47.6736 306.486 45.1882 303.735 43.922C300.691 42.5212 297.198 42.3573 294.069 41.1554C293.254 40.8422 292.424 40.4866 291.824 39.8485C291.573 39.5818 291.279 39.2358 291.178 38.8831C291.047 38.4197 291.373 38.0312 291.626 37.67C292.963 35.7547 298.036 31.8852 300.676 31.1486Z" fill="#523217"/>
<path fill-rule="evenodd" clip-rule="evenodd" d="M265.118 127.591L233.337 123.625C226.979 120.389 221.131 118.198 215.791 117.053C214.289 117.013 211.898 117.513 215.459 120.229C219.02 122.946 222.633 125.951 221.999 127.4C221.364 128.85 218.053 128.311 217.504 130.54C217.138 132.027 222.513 132.268 233.628 131.265L259.416 140.62L265.118 127.591ZM364.954 134.322L347.328 134.383C366.655 174.181 376.733 195.018 377.56 196.896C379.423 201.119 375.482 207.552 373.796 211.009C379.286 213.257 378.701 204.932 385.626 207.88C391.947 210.571 396.755 215.447 404.058 211.324C404.956 210.817 405.94 208.908 403.562 207.416C397.64 203.701 389.105 197.197 387.952 195.056C386.38 192.137 378.713 171.892 364.954 134.322Z" fill="#D6B294"/>
<path fill-rule="evenodd" clip-rule="evenodd" d="M316.675 83.17L302.875 84.0112C299.476 112.148 280.963 129.92 239.513 123.904L234.007 160.137C272.748 164.719 306.724 150.526 313.687 112.1C315.489 102.153 316.913 91.8006 316.675 83.17Z" fill="#AFB9C5"/>
<path fill-rule="evenodd" clip-rule="evenodd" d="M323.483 79.4993L302.573 83.8812C302.573 116.789 291.117 137.785 285.241 161.98H341.712C342.508 170.34 342.996 178.933 343.251 187.759H385.534C375.952 141.109 355.729 105.019 324.863 79.4875H323.494L323.483 79.4993Z" fill="#C5CFD6"/>
<path fill-rule="evenodd" clip-rule="evenodd" d="M332.803 115.032C334.259 135.539 333.403 151.188 330.236 161.98H341.713C340.137 145.418 337.356 129.769 332.803 115.032V115.032Z" fill="black" fill-opacity="0.1"/>
</g>
<mask id="mask1" mask-type="alpha" maskUnits="userSpaceOnUse" x="7" y="4" width="82" height="113">
<rect x="7.77406" y="5.01722" width="80.5389" height="111.433" fill="white" stroke="black" stroke-width="0.952416"/>
</mask>
<g mask="url(#mask1)">
<g clip-path="url(#clip0)">
<path fill-rule="evenodd" clip-rule="evenodd" d="M36.5926 56.7756C32.8473 52.6724 30.3123 47.6438 30.7359 42.0092C31.9564 25.7744 56.1701 29.3458 60.8802 37.5398C65.5903 45.7338 65.0306 66.5184 58.9432 67.9829C56.5156 68.567 51.344 67.1363 46.0806 64.1753L49.3844 85.99H29.877L36.5926 56.7756Z" fill="#EBCCB9"/>
<path fill-rule="evenodd" clip-rule="evenodd" d="M62.7218 41.2188C62.5286 40.1567 62.0564 38.9772 61.6753 37.9723C61.1841 36.677 60.4406 35.509 59.6225 34.4082C58.0822 32.3359 56.2344 30.4644 54.1943 28.9112C50.4677 26.0741 45.724 24.4376 41.0591 24.9691C38.7038 25.2374 36.4174 26.0759 34.4714 27.4716C32.7132 28.7326 31.022 30.5889 28.7453 30.7223C26.2681 30.8673 23.9973 28.8266 22.0106 27.5662C19.7705 26.1453 17.3875 25.11 14.7695 24.7075C10.3836 24.0335 6.26342 25.4165 3.24077 28.775C0.0242515 32.3489 -2.31391 37.59 -0.201604 42.3255C0.191029 43.2057 0.69615 43.9478 1.42108 44.5629C2.08592 45.1269 3.10133 45.727 3.37089 46.6282C3.65721 47.5861 2.80191 48.8219 2.47024 49.6863C1.9951 50.9247 1.60499 52.2246 1.74367 53.5707C1.97155 55.7812 3.45995 57.8915 5.03161 59.3444C6.63099 60.8229 8.59945 61.6707 10.7019 62.0616C12.1058 62.3225 13.5405 62.4665 14.9674 62.3685C15.6757 62.3199 16.3007 62.1363 16.987 61.9902C17.6543 61.8482 18.0273 62.0136 18.5935 62.3552C21.2238 63.9423 24.052 64.5563 27.0891 64.3203C29.6524 64.121 32.6067 63.5413 34.6978 61.9021C37.0199 60.0816 36.9737 57.5712 36.4273 54.889C37.0062 55.1568 38.6078 55.3227 37.6508 54.2552C37.2716 53.8325 36.5552 53.6605 36.0688 53.4118C35.5023 53.1223 34.9271 52.7482 34.4873 52.2759C32.7112 50.3691 34.505 46.4885 36.7374 45.849C40.054 44.8989 40.7966 49.2767 43.1642 50.4091C44.5256 51.0603 45.9496 50.1703 46.9695 49.2616C48.3357 48.0443 49.2669 46.4316 50.0708 44.7905C50.733 43.439 51.3492 42.0685 52.0241 40.7238C52.3393 40.0958 53.4304 38.3205 52.8825 37.6105C55.258 37.1683 57.9039 38.0897 59.9498 39.298C60.7954 39.7975 61.4401 40.3482 61.8912 41.23C61.9878 41.419 62.1982 41.9806 62.4623 42.0037C62.9541 42.0466 62.7703 41.4856 62.7218 41.2188Z" fill="#EFEFEF"/>
</g>
<path fill-rule="evenodd" clip-rule="evenodd" d="M27.6857 82.4146C27.8755 81.8379 28.0681 81.2596 28.2636 80.6797L28.9853 80.9966C29.098 80.8882 29.2114 80.7825 29.3258 80.6797L52.0767 83.963C52.0767 95.9043 62.2565 107.077 68.6963 116.69C78.7071 131.633 96.5204 148.197 85.0992 170.397C74.8082 190.401 48.0023 193.649 4.68164 180.142C4.68164 169.368 14.1698 158.537 14.4722 145.436C14.76 132.965 17.2585 95.1789 27.6857 82.4146Z" fill="#C1DEE2"/>
<path fill-rule="evenodd" clip-rule="evenodd" d="M49.603 175.877C49.4164 176.501 49.2261 177.136 49.0322 177.783C13.4345 154.562 13.4174 126.422 24.0044 94.8799C16.0247 125.932 19.2756 152.121 49.603 175.877Z" fill="black" fill-opacity="0.2"/>
</g>
<mask id="mask2" mask-type="alpha" maskUnits="userSpaceOnUse" x="31" y="4" width="94" height="113">
<rect x="32.1002" y="5.01722" width="91.4856" height="111.433" fill="white" stroke="black" stroke-width="0.952417"/>
</mask>
<g mask="url(#mask2)">
<path fill-rule="evenodd" clip-rule="evenodd" d="M82.7024 51.9533C79.2275 47.9319 76.8756 43.0037 77.2686 37.4814C78.401 21.5703 100.866 25.0705 105.236 33.1011C109.606 41.1317 109.087 61.5019 103.439 62.9372C101.187 63.5096 96.3887 62.1075 91.5053 59.2055L94.5705 80.5852H76.4717L82.7024 51.9533Z" fill="#B28B67"/>
<mask id="mask3" mask-type="alpha" maskUnits="userSpaceOnUse" x="66" y="19" width="40" height="40">
<path d="M104.69 28.578C105.016 27.6519 107.238 24.7825 103.281 22.0488C102.569 21.5575 101.395 22.0472 100.377 21.7371C99.6109 21.5038 99.3527 20.4504 98.4748 20.2666C97.564 20.076 96.5718 20.94 95.5424 20.8641C94.9117 20.8176 93.9385 19.8485 93.2819 19.7963C92.1097 19.7031 91.0449 20.794 89.9001 20.8641C89.2364 20.9048 88.4664 19.852 87.8078 19.7963C86.2046 19.6607 84.7446 20.3976 83.3319 20.621C82.0299 20.827 81.4245 23.4576 80.4654 24.0793C77.4559 26.0302 75.0979 26.5757 72.6558 28.578C69.7527 30.9583 69.1971 32.7292 67.9944 34.3154C66.7917 35.9015 66.0488 41.4899 66.7502 45.0714C67.1639 47.1841 68.242 52.9538 70.6506 55.1876C73.9472 58.2451 80.654 59.151 81.2493 58.7431C84.0067 56.8538 90.1876 46.4041 94.5714 42.711C97.795 39.9953 102.67 34.3154 104.69 28.578Z" fill="white"/>
</mask>
<g mask="url(#mask3)">
<path d="M104.69 28.578C105.016 27.6519 107.238 24.7825 103.281 22.0488C102.569 21.5575 101.395 22.0472 100.377 21.7371C99.6109 21.5038 99.3527 20.4504 98.4748 20.2666C97.564 20.076 96.5718 20.94 95.5424 20.8641C94.9117 20.8176 93.9385 19.8485 93.2819 19.7963C92.1097 19.7031 91.0449 20.794 89.9001 20.8641C89.2364 20.9048 88.4664 19.852 87.8078 19.7963C86.2046 19.6607 84.7446 20.3976 83.3319 20.621C82.0299 20.827 81.4245 23.4576 80.4654 24.0793C77.4559 26.0302 75.0979 26.5757 72.6558 28.578C69.7527 30.9583 69.1971 32.7292 67.9944 34.3154C66.7917 35.9015 66.0488 41.4899 66.7502 45.0714C67.1639 47.1841 68.242 52.9538 70.6506 55.1876C73.9472 58.2451 80.654 59.151 81.2493 58.7431C84.0067 56.8538 90.1876 46.4041 94.5714 42.711C97.795 39.9953 102.67 34.3154 104.69 28.578Z" fill="#FF9B21"/>
<path fill-rule="evenodd" clip-rule="evenodd" d="M82.4725 50.7276C84.4525 46.4044 86.9986 40.8566 89.3015 35.166C90.9529 31.0853 92.7097 25.8597 94.5718 19.4894H96.8131C93.2823 29.4101 90.6265 36.338 88.8456 40.2733C85.9809 46.6033 83.9225 51.4106 82.2827 54.637C85.0299 50.6667 89.2551 44.1902 93.7594 35.4809C95.4672 32.1789 97.4777 27.1229 99.7909 20.3131L101.877 21.1929C98.3747 29.812 95.6689 35.8227 93.7594 39.2247C87.5353 50.3139 81.5921 57.0047 79.5148 58.9036C79.1554 59.2322 79.0352 59.3087 79.1214 59.1406C79.0928 59.1362 79.0718 59.1193 79.0582 59.0902C78.9121 59.3081 78.7666 59.4991 78.6212 59.6631C76.5263 62.0253 81.8866 48.8573 85.8375 35.0469C87.0472 30.8184 88.2404 25.4405 89.417 18.9131L91.6459 18.6821C89.1863 28.9123 87.2796 36.076 85.9256 40.1732C84.5528 44.3276 83.4345 47.8472 82.4725 50.7276Z" fill="black" fill-opacity="0.2"/>
</g>
<path fill-rule="evenodd" clip-rule="evenodd" d="M108.268 107.29L134.443 93.1555C138.796 88.0594 143.084 84.1015 147.309 81.2819C148.6 80.7506 150.857 80.429 148.746 84.1233C146.635 87.8176 144.583 91.7971 145.658 92.9353C146.734 94.0734 149.416 92.4835 150.699 94.3745C151.554 95.6352 146.973 97.6267 136.953 100.349L117.934 117.518L108.268 107.29ZM149.263 119.215L160.76 112.988C162.374 106.936 164.302 103.89 166.546 103.852C168.27 103.062 165.268 110.709 168.535 110.046C171.803 109.383 179.778 103.535 181.152 104.723C183.185 106.479 181.372 111.873 179.236 114.556C175.245 119.57 171.94 121.285 163.771 123.531C159.5 124.705 154.882 127.058 149.918 130.591L149.263 119.215Z" fill="#997659"/>
<path fill-rule="evenodd" clip-rule="evenodd" d="M95.5199 104.141C104.688 104.045 116.914 102.136 129.959 93.9721L135.082 105.236C126.084 114.04 113.432 121.274 102.369 120.968C93.6506 120.726 89.1949 110.329 95.5199 104.141Z" fill="#2026A2"/>
<path fill-rule="evenodd" clip-rule="evenodd" d="M107.864 122.205C117.598 124.598 133.92 121.776 156.83 113.738C162.513 125.329 165.14 133.593 164.711 138.529C145.057 148.651 128.212 153.164 114.334 153.461C114.775 161.58 113.773 169.306 110.405 176.364C103.483 190.876 62.9498 177.437 49.3212 180.082C40.7865 152.755 57.2885 141.649 57.3018 124.164C57.3163 105.016 72.9112 75.542 75.2056 75.542L96.1299 75.542C97.2844 90.1658 103.095 106.283 107.864 122.205Z" fill="#1F28CF"/>
</g>
<mask id="mask4" mask-type="alpha" maskUnits="userSpaceOnUse" x="197" y="4" width="121" height="113">
<rect x="-0.476208" y="0.476208" width="119.46" height="111.433" transform="matrix(-1 0 0 1 316.499 4.54102)" fill="white" stroke="black" stroke-width="0.952416"/>
</mask>
<g mask="url(#mask4)">
<path fill-rule="evenodd" clip-rule="evenodd" d="M261.692 49.9548C265.777 45.4796 268.542 39.9953 268.08 33.8499C266.749 16.1433 240.34 20.0386 235.203 28.9753C230.066 37.912 230.676 60.5808 237.315 62.1781C239.963 62.8151 245.604 61.2547 251.344 58.0253L247.741 81.8175H269.017L261.692 49.9548Z" fill="#B28B67"/>
<path fill-rule="evenodd" clip-rule="evenodd" d="M250.281 35.8055C249.467 46.3938 247.313 51.6879 243.819 51.6879C238.577 51.6879 234.13 48.5822 231.83 48.5822C230.153 48.5822 230.528 50.5404 231.639 51.9922C232.556 53.1901 237.021 54.3446 237.021 56.2017C237.021 58.0587 233.493 56.622 233.493 57.7234C233.493 59.5452 232.873 62.9705 236.261 62.9705C239.689 62.9705 249.52 61.8044 251.204 57.055C252.291 53.99 252.994 47.6386 253.313 38.0009C253.521 37.9778 253.733 37.9659 253.947 37.9659C256.885 37.9659 259.266 40.1885 259.266 42.9303C259.266 44.3221 258.653 45.5802 257.664 46.4816C258.895 48.103 260.274 49.7967 261.855 51.5444C267.792 48.2195 272.198 38.4863 266.393 29.1362C264.789 24.5558 261.156 22.1092 256.866 20.9731C253.391 19.6164 249.784 19.4634 246.738 20.2768C240.769 20.7547 235.438 22.4536 233.928 23.4625C233.928 28.7373 235.023 30.3024 244.376 30.1644C246.674 31.2973 248.441 33.248 250.281 35.8055Z" fill="black"/>
<path fill-rule="evenodd" clip-rule="evenodd" d="M258.007 73.0077L250.342 71.7806C237.144 102.551 214.102 130.511 181.217 155.658L206.067 183.836C238.949 148.029 259.217 111.087 258.007 73.0077Z" fill="#C1DEE2"/>
<path fill-rule="evenodd" clip-rule="evenodd" d="M291.422 162.918H223.162C238.976 127.031 246.883 96.5441 246.883 71.4593L267.474 68.5959C283.656 92.8868 288.226 122.794 291.422 162.918Z" fill="#DDE3E9"/>
<path fill-rule="evenodd" clip-rule="evenodd" d="M267.91 68.6095C267.908 68.605 267.905 68.6005 267.902 68.5959L266.558 68.5959C264.95 68.6476 262.5 68.7408 259.209 68.8753L254.234 82.146C253.707 98.3261 250.634 130.933 245.013 179.968H289.759C289.642 183.354 289.448 186.773 289.179 190.222H322.449C317.473 137.819 299.298 97.2766 267.927 68.5959L267.91 68.6095V68.6095Z" fill="#C1DEE2"/>
</g>
<rect x="218.121" y="3.97326" width="124.041" height="115.393" rx="8.51403" stroke="black" stroke-width="5.67602"/>
<defs>
<clipPath id="clip0">
<rect width="65.0247" height="61.4484" fill="white" transform="translate(-1.00977 24.5415)"/>
</clipPath>
</defs>
</svg>
